<?xml version="1.0" encoding="utf-8"?>
<!-- Generator: Adobe Illustrator 24.2.1, SVG Export Plug-In . SVG Version: 6.00 Build 0)  -->
<svg version="1.1" id="Слой_1" xmlns="http://www.w3.org/2000/svg" xmlns:xlink="http://www.w3.org/1999/xlink" x="0px" y="0px"
	 viewBox="0 0 50 50" style="enable-background:new 0 0 50 50;" xml:space="preserve">
<style type="text/css">
	.st0{fill:none;stroke:#000000;stroke-width:2;stroke-miterlimit:10;}
</style>
<g>
	<g>
		<path d="M42.7,44.2c-5.6-7.3-11.1-14.7-16.7-22c-1-1.3-3.1,0-2.2,1.3c5.6,7.3,11.1,14.7,16.7,22C41.5,46.8,43.7,45.5,42.7,44.2
			L42.7,44.2z"/>
	</g>
</g>
<circle class="st0" cx="19.2" cy="14.5" r="9.8"/>
<path d="M22.5,7.7c-0.1-0.2-0.3-0.4-0.6-0.4c-0.7-0.1-1.3-0.2-2-0.3c-0.4-0.1-0.7,0-1.1,0.1c-0.2,0-0.4,0.1-0.5,0.2
	c-0.2,0.1-0.3,0.2-0.4,0.3c-0.2,0.2-0.4,0.4-0.3,0.6c0.1,0.2,0.3,0.4,0.6,0.4c0.7,0.1,1.3,0.2,2,0.3c0.4,0.1,0.7,0,1.1-0.1
	c0.2,0,0.4-0.1,0.5-0.2c0.2-0.1,0.3-0.2,0.4-0.3C22.3,8.2,22.6,7.9,22.5,7.7z"/>
</svg>
