<?xml version="1.0" encoding="utf-8"?>
<!-- Generator: Adobe Illustrator 24.2.1, SVG Export Plug-In . SVG Version: 6.00 Build 0)  -->
<svg version="1.1" id="Слой_1" xmlns="http://www.w3.org/2000/svg" xmlns:xlink="http://www.w3.org/1999/xlink" x="0px" y="0px"
	 viewBox="0 0 400 150" style="enable-background:new 0 0 400 150;" xml:space="preserve">
<style type="text/css">
	.st0{fill:url(#SVGID_1_);}
</style>
<g>
	
		<image style="overflow:visible;opacity:0.51;enable-background:new    ;" width="604" height="600" xlink:href="90D4B0BF.png"  transform="matrix(0.2378 0 0 0.2378 16.7426 3.6582)">
	</image>
	<g>
		
			<linearGradient id="SVGID_1_" gradientUnits="userSpaceOnUse" x1="26" y1="75" x2="151" y2="75" gradientTransform="matrix(1 0 0 -1 0 150)">
			<stop  offset="0" style="stop-color:#FFEF26"/>
			<stop  offset="5.948725e-02" style="stop-color:#FFE000"/>
			<stop  offset="0.1303" style="stop-color:#FFD300"/>
			<stop  offset="0.2032" style="stop-color:#FECB00"/>
			<stop  offset="0.2809" style="stop-color:#FDC800"/>
			<stop  offset="0.6685" style="stop-color:#F18F34"/>
			<stop  offset="0.8876" style="stop-color:#E95F32"/>
			<stop  offset="1" style="stop-color:#E3312D"/>
		</linearGradient>
		<circle class="st0" cx="88.5" cy="75" r="62.5"/>
	</g>
</g>
<path d="M111.4,85.4c-15.1,11.4-38.4,25.3-53.3,5.7c-3.8-5.1-12.5-0.1-8.6,5c7.8,10.2,18,15.8,31.1,14.7
	c13.7-1.2,25.2-8.8,35.9-16.8C121.5,90.2,116.5,81.5,111.4,85.4z"/>
<path d="M78.1,48.5c-3,6.1-5.2,12.5-6.6,19.2c-1.3,6.3,8.3,9,9.6,2.7c1.2-5.8,3-11.4,5.6-16.8C89.6,47.8,80.9,42.7,78.1,48.5z"/>
<path d="M98.7,49.4c-2.1,6-4.1,11.9-6.2,17.9c-2.1,6.1,7.5,8.7,9.6,2.7c2.1-6,4.1-11.9,6.2-17.9C110.4,45.9,100.8,43.3,98.7,49.4z"
	/>
<path d="M229.8,84.3c-10.5-14.7-28.1-16.6-44.8-16.6c4.5-12.1,9.1-24.1,13.8-36.1c8.9,0.5,17.9,1.3,26.8,2.3c6.4,0.7,6.3-9.3,0-10
	c-10.2-1.2-20.5-2-30.8-2.5c-3.5-0.2-5.1,2.7-4.8,5.4c-6.9,17.6-13.6,35.3-20.1,53.1c-3.3,9.2-6.6,18.4-9.8,27.6
	c-2.4,6.8-2.3,13.7,6.1,15.5c8.5,1.8,18.4,1,27,0.2c9.2-0.9,18.4-2.5,27.2-5.1c6.7-2,13.2-5.5,14.9-12.9
	C236.9,98,233.9,90.1,229.8,84.3z M224.9,104.5c-2,3.1-7.5,3.9-10.7,4.8c-9,2.4-18.2,3.8-27.5,4.2c-4.7,0.2-9.4,0.2-14.1-0.1
	c-0.9,0-3.8,0.2-4.6-0.3c0.9,0.3,2.7-5.5,2.9-5.9c3-8.6,6-17.2,9.1-25.7c0.5-1.4,1-2.7,1.5-4.1c0.4,0.1,0.9,0.2,1.4,0.2
	c15.1-0.1,33.8,0.4,41.1,16.3C225.2,97,226.8,101.6,224.9,104.5z"/>
<path d="M337.1,87.6c-2.5-6.2-5.4-13.2-10.1-18c-5.5-5.7-13.1-4.7-19.9-2.5c-1.4,0.5-2.3,1.3-2.9,2.4c-0.6,0.3-1.1,0.7-1.6,1.3
	c-8.9,10.9-12.9,28-6.2,41c6.1,11.8,19.9,16.7,31.7,10.6c5.9-3.1,11.9-7.4,13.2-14.4C342.4,101.3,339.6,93.8,337.1,87.6z
	 M331.5,105.2c-0.4,4.4-4.8,6.8-8.5,8.6c-7.9,3.9-16.1-1-18.8-8.9c-3-8.7-0.3-20,5.4-27c0.4-0.4,0.6-0.9,0.8-1.4
	c4.6-1.5,8.1-2.1,11.2,2.5c2.6,4,4.7,8.4,6.4,12.9C329.6,95.7,331.8,100.9,331.5,105.2z"/>
<path d="M388.7,58.8c-11.3,2.5-23.1,0.5-34.6,2c-3.3,0.5-4.2,3.3-3.3,5.8c-0.3,0.7-0.4,1.4-0.4,2.3c1.4,16.4,0.9,32.8-1.8,49.1
	c-1,6.3,8.6,9,9.6,2.7c2.8-16.8,3.6-33.7,2.2-50.6c10.3-0.8,20.6,0.6,30.9-1.6C397.6,67.1,394.9,57.4,388.7,58.8z"/>
<path d="M292.9,114.6c-5.5-14.9-11.8-29.5-19-43.7c-1.6-3.2-7-3.3-8.6,0c-7.6,15.3-17.1,29.4-28.5,42c-4.3,4.8,2.8,11.9,7.1,7.1
	c9.8-10.9,18.4-22.8,25.6-35.6c5.1,10.7,9.7,21.7,13.8,32.8C285.4,123.2,295.1,120.7,292.9,114.6z"/>
</svg>
