<?xml version="1.0" encoding="utf-8"?>
<!-- Generator: Adobe Illustrator 24.2.1, SVG Export Plug-In . SVG Version: 6.00 Build 0)  -->
<svg version="1.1" id="Слой_1" xmlns="http://www.w3.org/2000/svg" xmlns:xlink="http://www.w3.org/1999/xlink" x="0px" y="0px"
	 viewBox="0 0 400 150" style="enable-background:new 0 0 400 150;" xml:space="preserve">
<style type="text/css">
	.st0{fill:url(#SVGID_1_);}
	.st1{fill:#4CC2F1;}
</style>
<g>
	
		<image style="overflow:visible;opacity:0.51;" width="597" height="596" xlink:href="90D4B0BF.png"  transform="matrix(0.24 0 0 0.24 16.92 3.48)">
	</image>
	<g>
		<linearGradient id="SVGID_1_" gradientUnits="userSpaceOnUse" x1="25.9609" y1="75" x2="150.9609" y2="75">
			<stop  offset="0" style="stop-color:#FFEF26"/>
			<stop  offset="5.948725e-02" style="stop-color:#FFE000"/>
			<stop  offset="0.1303" style="stop-color:#FFD300"/>
			<stop  offset="0.2032" style="stop-color:#FECB00"/>
			<stop  offset="0.2809" style="stop-color:#FDC800"/>
			<stop  offset="0.6685" style="stop-color:#F18F34"/>
			<stop  offset="0.8876" style="stop-color:#E95F32"/>
			<stop  offset="1" style="stop-color:#E3312D"/>
		</linearGradient>
		<circle class="st0" cx="88.5" cy="75" r="62.5"/>
	</g>
</g>
<g>
	<g>
		<path d="M161.6,53.7h29.2v5.1h-23.2v14.8h9c10.1,0,17.3,3.6,17.3,13.1c0,9.8-6.6,14.3-17,14.3h-15.3V53.7z M176,96.2
			c8,0,12.1-2.9,12.1-9.4c0-6.1-4.2-8.6-12.2-8.6h-8.2v18H176z"/>
		<path d="M196.9,101.2l1.3-5.5c0.7,0.2,1.2,0.4,2,0.4c2.5,0,4.3-1.5,6.6-12.7c2-9.9,3.6-19.3,5.4-29.7h23.6V101h-6V58.8h-12.9
			c-1.6,8.6-2.9,16.9-4.5,25.2c-2.7,14.5-5.8,17.8-11.5,17.8C199.4,101.9,198.2,101.7,196.9,101.2z"/>
		<path d="M246,77.2c0-15.1,8.3-24.3,20.2-24.3s20.2,9.2,20.2,24.3c0,15.1-8.3,24.7-20.2,24.7S246,92.3,246,77.2z M280.2,77.2
			c0-11.8-5.5-19-14-19c-8.4,0-14,7.3-14,19c0,11.8,5.5,19.4,14,19.4C274.6,96.6,280.2,89,280.2,77.2z"/>
		<path d="M296.5,53.7h27.3v5.1h-21.2V101h-6V53.7z"/>
	</g>
</g>
<g>
	<g>
		<path class="st1" d="M166.5,53.7h29.2v5.1h-23.2v14.8h9c10.1,0,17.3,3.6,17.3,13.1c0,9.8-6.6,14.3-17,14.3h-15.3V53.7z
			 M180.9,96.2c8,0,12.1-2.9,12.1-9.4c0-6.1-4.2-8.6-12.2-8.6h-8.2v18H180.9z"/>
		<path class="st1" d="M201.8,101.2l1.3-5.5c0.7,0.2,1.2,0.4,2,0.4c2.5,0,4.3-1.5,6.6-12.7c2-9.9,3.6-19.3,5.4-29.7h23.6V101h-6
			V58.8h-12.9c-1.6,8.6-2.9,16.9-4.5,25.2c-2.7,14.5-5.8,17.8-11.5,17.8C204.3,101.9,203.1,101.7,201.8,101.2z"/>
		<path class="st1" d="M250.9,77.2c0-15.1,8.3-24.3,20.2-24.3s20.2,9.2,20.2,24.3c0,15.1-8.3,24.7-20.2,24.7S250.9,92.3,250.9,77.2z
			 M285.1,77.2c0-11.8-5.5-19-14-19c-8.4,0-14,7.3-14,19c0,11.8,5.5,19.4,14,19.4C279.5,96.6,285.1,89,285.1,77.2z"/>
		<path class="st1" d="M301.4,53.7h27.3v5.1h-21.2V101h-6V53.7z"/>
	</g>
</g>
</svg>
