<?xml version="1.0" encoding="utf-8"?>
<!-- Generator: Adobe Illustrator 24.2.1, SVG Export Plug-In . SVG Version: 6.00 Build 0)  -->
<svg version="1.1" id="Слой_1" xmlns="http://www.w3.org/2000/svg" xmlns:xlink="http://www.w3.org/1999/xlink" x="0px" y="0px"
	 viewBox="0 0 400 150" style="enable-background:new 0 0 400 150;" xml:space="preserve">
<style type="text/css">
	.st0{fill:#2FAC66;}
	.st1{fill:#4CC2F1;}
	.st2{fill:#E6332A;}
</style>
<path class="st0" d="M329.6,124.7H82.4c-2.8,0-5-2.2-5-5V25.4c0-2.8,2.2-5,5-5h247.1c2.8,0,5,2.2,5,5v94.3
	C334.6,122.4,332.3,124.7,329.6,124.7z"/>
<g>
	<g>
		<path d="M274.1,53.7h6v20h11.6l17.5,27.3h-6.5l-14.5-22.4h-8.1V101h-6V53.7z M287.6,74.9l7.3-13.2c3.9-7.1,6.4-8.8,10.6-8.8
			c0.9,0,1.9,0.1,2.6,0.4l-1,5.6c-0.6-0.2-1.3-0.3-1.7-0.3c-2.1,0-3.3,0.8-6.2,6l-6.3,11.5L287.6,74.9z"/>
	</g>
</g>
<g>
	<g>
		<path class="st1" d="M279,53.7h6v20h11.6l17.5,27.3h-6.5l-14.5-22.4H285V101h-6V53.7z M292.5,74.9l7.3-13.2
			c3.9-7.1,6.4-8.8,10.6-8.8c0.9,0,1.9,0.1,2.6,0.4l-1,5.6c-0.6-0.2-1.3-0.3-1.7-0.3c-2.1,0-3.3,0.8-6.2,6l-6.3,11.5L292.5,74.9z"/>
	</g>
</g>
<g>
	<g>
		<path d="M112.3,53.7h29.2v5.1h-23.2v14.8h9c10.1,0,17.3,3.6,17.3,13.1c0,9.8-6.6,14.3-17,14.3h-15.3V53.7z M126.6,96.2
			c8,0,12.1-2.9,12.1-9.4c0-6.1-4.2-8.6-12.2-8.6h-8.2v18H126.6z"/>
		<path d="M147.6,101.2l1.3-5.5c0.7,0.2,1.2,0.4,2,0.4c2.5,0,4.3-1.5,6.6-12.7c2-9.9,3.6-19.3,5.4-29.7h23.6V101h-6V58.8h-12.9
			c-1.6,8.6-2.9,16.9-4.5,25.2c-2.7,14.5-5.8,17.8-11.5,17.8C150.1,101.9,148.9,101.7,147.6,101.2z"/>
		<path d="M196.7,77.2c0-15.1,8.3-24.3,20.2-24.3s20.2,9.2,20.2,24.3c0,15.1-8.3,24.7-20.2,24.7S196.7,92.3,196.7,77.2z M230.8,77.2
			c0-11.8-5.5-19-14-19c-8.4,0-14,7.3-14,19c0,11.8,5.5,19.4,14,19.4C225.3,96.6,230.8,89,230.8,77.2z"/>
		<path d="M247.2,53.7h27.3v5.1h-21.2V101h-6V53.7z"/>
	</g>
</g>
<g>
	<g>
		<path class="st1" d="M117.2,53.7h29.2v5.1h-23.2v14.8h9c10.1,0,17.3,3.6,17.3,13.1c0,9.8-6.6,14.3-17,14.3h-15.3V53.7z
			 M131.5,96.2c8,0,12.1-2.9,12.1-9.4c0-6.1-4.2-8.6-12.2-8.6h-8.2v18H131.5z"/>
		<path class="st1" d="M152.5,101.2l1.3-5.5c0.7,0.2,1.2,0.4,2,0.4c2.5,0,4.3-1.5,6.6-12.7c2-9.9,3.6-19.3,5.4-29.7h23.6V101h-6
			V58.8h-12.9c-1.6,8.6-2.9,16.9-4.5,25.2c-2.7,14.5-5.8,17.8-11.5,17.8C155,101.9,153.8,101.7,152.5,101.2z"/>
		<path class="st1" d="M201.6,77.2c0-15.1,8.3-24.3,20.2-24.3S242,62.1,242,77.2c0,15.1-8.3,24.7-20.2,24.7S201.6,92.3,201.6,77.2z
			 M235.7,77.2c0-11.8-5.5-19-14-19c-8.4,0-14,7.3-14,19c0,11.8,5.5,19.4,14,19.4C230.2,96.6,235.7,89,235.7,77.2z"/>
		<path class="st1" d="M252.1,53.7h27.3v5.1h-21.2V101h-6V53.7z"/>
	</g>
</g>
<path class="st2" d="M315.8,106.9H93.7c-3.4,0-3.4,5,0,5h222.1C319.2,111.9,319.2,106.9,315.8,106.9z"/>
<g>
	<circle class="st2" cx="298.4" cy="41.6" r="14.8"/>
</g>
</svg>
