<?xml version="1.0" encoding="utf-8"?>
<!-- Generator: Adobe Illustrator 24.2.1, SVG Export Plug-In . SVG Version: 6.00 Build 0)  -->
<svg version="1.1" id="Слой_1" xmlns="http://www.w3.org/2000/svg" xmlns:xlink="http://www.w3.org/1999/xlink" x="0px" y="0px"
	 viewBox="0 0 50 100" style="enable-background:new 0 0 50 100;" xml:space="preserve">
<style type="text/css">
	.st0{fill:#F39200;}
</style>
<path class="st0" d="M39.8,7.7c-5.6-4.7-13.1-7-20.4-6.3c-1,0.1-1.5,0.9-1.4,1.7c-1.4,0.9-2.6,2.1-3.6,3.4c-1.8,2.3-4.2,5.4-4,8.5
	c0.2,2.9,1.9,6,3.7,8.3c1.8,2.3,4.1,4.1,7,4.9c1.2,0.3,2.4,0.5,3.6,0.5c-0.4,4-0.5,8.1-0.3,12.1c-4.2-6-9.5-11.2-15.5-15.4
	c-1.6-1.1-3.1,1.5-1.5,2.6c7.1,4.9,13.1,11.4,17.5,18.9c0,0,0,0,0.1,0.1c0.3,2.3,0.6,4.7,1,7c0.3,1.8,1.1,4,0.8,5.9
	c0,0.1,0,0.2,0,0.3c-0.1,0.3-0.1,0.6-0.3,0.8c-4,7.2-7.6,14.7-10.6,22.4c-0.7,1.8,2.2,2.6,2.9,0.8c2.7-6.9,5.9-13.5,9.4-20
	c2.3,5.6,5,11,8.2,16.1c1,1.6,3.6,0.1,2.6-1.5c-3.7-5.9-6.7-12.2-9.2-18.8c0.1-1.4-0.1-2.9-0.4-4.4c-0.6-3-1.1-6.1-1.5-9.1
	c-0.1-0.6-0.1-1.2-0.2-1.8c1.9-2.2,3.7-4.4,5.3-6.8c0.8-1.2,1.7-2.5,2.4-3.7c0.4-0.6,0.8-1.3,1.1-1.9c0.3-0.5,0.5-0.9,1-1.2
	c1.6-1,0.1-3.6-1.5-2.6c-1.3,0.8-1.9,2.1-2.7,3.3c-0.8,1.3-1.6,2.7-2.5,4c-1.1,1.6-2.2,3.1-3.4,4.6c-0.1-4,0-8,0.4-12
	c4.2-0.7,8.3-2.8,11.4-5.3c2.3-1.9,4.7-4.5,4.8-7.6C44.1,12.4,42.2,9.7,39.8,7.7z M38.9,19.3c-3.4,3.6-8.5,6.2-13.5,6.4
	c-5.3,0.2-9.1-3.3-11.1-7.9c-0.5-1.2-1.2-2.7-0.8-4.1c0.4-1.4,1.3-2.7,2.1-3.8c1.5-2.2,3.6-5,6.6-5.2c0.4,0,0.6-0.1,0.9-0.3
	c4,0.2,7.9,1.3,11.4,3.3c2.1,1.2,4.4,2.7,5.7,4.9c0.6,1,1,2.2,0.8,3.4C40.8,17.2,39.8,18.3,38.9,19.3z"/>
<path class="st0" d="M25.1,10.9c-0.3-0.3-0.7-0.5-1.1-0.4c-0.8,0-1.5,0.7-1.5,1.5v3.1c0,0.4,0.2,0.8,0.4,1.1
	c0.3,0.3,0.7,0.5,1.1,0.4c0.8,0,1.5-0.7,1.5-1.5V12C25.5,11.6,25.4,11.2,25.1,10.9z"/>
<path class="st0" d="M31.8,10.7c-0.1-0.3-0.4-0.7-0.7-0.9c-0.3-0.2-0.8-0.3-1.2-0.2c-0.4,0.1-0.7,0.3-0.9,0.7
	c-0.2,0.4-0.2,0.7-0.2,1.2c0,0.1,0,0.1,0,0.2c0.1,1.1,0.2,2.3,0.1,3.5c0,0.4,0.2,0.8,0.4,1.1c0.3,0.3,0.7,0.5,1.1,0.4
	c0.4,0,0.8-0.1,1.1-0.4c0.3-0.3,0.4-0.6,0.4-1.1C32.1,13.6,32,12.1,31.8,10.7z"/>
<path class="st0" d="M31.4,19.2C31.4,19.2,31.4,19.3,31.4,19.2C31.4,19.3,31.4,19.3,31.4,19.2c-0.1,0-0.3,0-0.4,0.1
	c-0.5,0-1,0.1-1.5,0.1c-1.1,0.1-2.1,0.1-3.2,0c-1.1,0-2.1-0.1-3.2-0.2c-0.4,0-0.8-0.1-1.2-0.2c0,0-0.2,0-0.3-0.1
	c-0.1-0.7-0.8-1.3-1.5-1.3c-0.9,0-1.4,0.7-1.5,1.5c-0.2,1.6,1.4,2.6,2.8,2.8c1.5,0.2,3.1,0.4,4.6,0.5c1.5,0.1,2.9,0,4.4-0.1
	c1.5-0.1,3.2-0.3,3.7-1.9C34.6,18.7,32.2,17.9,31.4,19.2z"/>
<path class="st0" d="M14.1,85.3c-3.5,0-7.1-0.1-10.6-0.1c-0.8,0-1.5,0.7-1.5,1.5c0,0.8,0.7,1.5,1.5,1.5c1.4,0,2.9,0,4.3,0
	c0.1,2.3,0.2,4.6,0.1,6.8c0,0.8,0.7,1.5,1.5,1.5c0.8,0,1.5-0.7,1.5-1.5c0-2.3,0-4.5-0.1-6.8c1.1,0,2.2,0,3.3,0
	c0.8,0,1.5-0.7,1.5-1.5C15.6,86,14.9,85.3,14.1,85.3z"/>
<g>
	<path class="st0" d="M23,92.3c-0.2-1-0.9-1.8-1.7-2.3c-0.6-0.4-1.4-0.7-2.2-0.8c-1-0.2-2.1-0.2-3.1,0.1c-2,0.6-3.4,2.6-3.2,4.7
		c0,0.2,0.1,0.4,0.2,0.6c-0.1,0.3-0.1,0.6,0,0.8c0.7,2.1,2.8,3,5,2.9c2.1,0,4.1-1,4.9-3C23.3,94.5,23.2,93.3,23,92.3z M20.1,94.4
		C20.2,94.3,20.1,94.4,20.1,94.4c-0.1,0.1-0.1,0.2-0.1,0.2c-0.1,0.1-0.2,0.2-0.3,0.3c0,0-0.1,0.1-0.1,0.1c-0.1,0-0.1,0.1-0.2,0.1
		c0,0,0,0-0.1,0c0,0-0.1,0-0.1,0c-0.1,0-0.1,0-0.2,0.1c-0.1,0-0.2,0-0.2,0.1c0,0-0.1,0-0.1,0c-0.3,0.1-0.8,0-1.1,0
		c-0.1,0-0.1,0-0.2,0c-0.1,0-0.1,0-0.2,0c0.1,0,0.1,0,0.2,0c-0.1,0-0.4-0.1-0.5-0.1c-0.1,0-0.2-0.1-0.2-0.1c0,0,0,0,0,0
		c-0.1,0-0.1-0.1-0.2-0.1c0,0,0,0,0,0c0,0-0.1-0.1-0.2-0.1c0,0-0.1-0.1-0.1-0.1c0,0,0-0.1,0-0.1c0,0,0,0,0,0c0,0,0,0,0,0
		c0-0.1-0.1-0.1-0.1-0.2c0-0.1,0.1-0.3,0-0.4c0-0.1,0-0.3,0-0.4c0,0,0-0.1,0-0.1c0,0,0,0,0,0c0,0,0,0,0-0.1c0,0,0,0,0,0
		c0-0.1,0-0.1,0,0c0-0.1,0.1-0.2,0.1-0.2c0,0,0-0.1,0-0.1c0,0,0,0,0,0c0.1-0.1,0.1-0.2,0.2-0.3c0,0,0,0,0,0c0,0,0.1-0.1,0.1-0.1
		c0.1-0.1,0.1-0.1,0.2-0.2c0.1,0,0.1-0.1,0.2-0.1c0,0,0.1,0,0.1-0.1c0,0,0,0,0.1,0c0.1,0,0.3-0.1,0.4-0.1c0,0,0.2,0,0.3,0
		c0.2,0,0.4,0,0.6,0c0.1,0,0.3,0,0.4,0c0,0,0.1,0,0.1,0c0.3,0.1,0.6,0.1,0.8,0.2c0.1,0,0.1,0.1,0.1,0.1c0.1,0,0.2,0.1,0.3,0.2
		c0,0,0.1,0.1,0.1,0.1c0,0,0.1,0.1,0.1,0.1c0,0,0,0,0,0c0,0,0,0.1,0.1,0.1c0,0,0,0,0,0c0,0.1,0,0.1,0,0.2c0,0,0,0,0,0
		c0,0.4,0,0.7,0,1.1c0,0,0,0,0,0c0,0,0,0,0,0c0,0,0,0.1,0,0.1C20.1,94.3,20.1,94.4,20.1,94.4C20.1,94.4,20.1,94.5,20.1,94.4
		C20.1,94.5,20.1,94.5,20.1,94.4z"/>
	<path class="st0" d="M20.1,94.5C20,94.5,20,94.5,20.1,94.5L20.1,94.5z"/>
	<path class="st0" d="M15.9,93.4C15.9,93.5,15.9,93.5,15.9,93.4C15.9,93.5,15.9,93.5,15.9,93.4C15.9,93.4,15.9,93.4,15.9,93.4z"/>
	<path class="st0" d="M20.1,94.3c0,0,0-0.1,0-0.1c0,0,0,0,0,0v0C20.1,94.3,20.1,94.3,20.1,94.3z"/>
</g>
<g>
	<path class="st0" d="M30.4,91.2C30.4,91.2,30.4,91.2,30.4,91.2c0,0-0.1,0-0.1,0C30.3,91.2,30.3,91.2,30.4,91.2z"/>
	<path class="st0" d="M33.9,92.2c-0.1-1.1-0.5-2.2-1.2-3.1c-1-1-2.4-1.2-3.6-0.6c0,0,0,0,0,0h-0.3c-0.2,0-0.3,0-0.5,0.1
		c-0.4-1.4-0.8-2.8-0.9-4.2c0-0.8-0.7-1.5-1.5-1.5c-0.8,0-1.5,0.7-1.5,1.5c0.1,2,0.6,3.8,1.2,5.7c0.3,0.9,0.6,1.8,0.8,2.7
		c0.2,0.9,0.3,1.7,0.4,2.6c0.2,1.1,0.8,1.9,1.9,2.2c1,0.3,2.2,0.4,3.1-0.3C33.3,96.3,34.1,94.1,33.9,92.2z M30.7,93.8
		c-0.1,0.2-0.2,0.5-0.4,0.8c0,0-0.1,0.1-0.2,0.2c0,0,0,0,0,0c-0.1,0-0.2,0-0.4-0.1c0,0,0,0,0,0c0,0,0,0,0,0c0,0,0-0.4,0-0.3
		c-0.1-1-0.3-1.9-0.6-2.9h0.1c0.2,0,0.4,0,0.6-0.1c0.1,0,0.2-0.1,0.3-0.1c0.1,0,0.2,0,0.2-0.1c0,0,0,0,0.1,0c0,0,0.1,0,0.1-0.1
		c-0.1,0-0.1,0-0.1,0.1c0,0,0,0,0,0c-0.1-0.1,0.1,0.2,0.1,0.1c0.2,0.3,0.3,0.5,0.3,0.8C31,92.6,30.9,93.2,30.7,93.8z"/>
</g>
<path class="st0" d="M45.9,89.9c0-0.3-0.1-0.7-0.2-1c0.1-0.4,0.1-0.8,0.2-1.2c0-0.7-0.5-1.3-1.1-1.4c-1.2-0.3-2.2,0.7-2.2,1.9
	c0,0.2,0,0.5,0.1,0.7c0,0.1-0.1,0.2,0,0c0,0.1-0.1,0.2-0.1,0.2c-0.1,0.1-0.1,0.2-0.2,0.3c0,0-0.1,0.1-0.1,0.1
	c-0.1,0.1-0.2,0.3-0.4,0.4c0,0-0.1,0.1-0.1,0.1c-0.1,0.1-0.1,0.1-0.2,0.2c-0.2,0.1-0.3,0.2-0.5,0.3c0,0-0.1,0-0.1,0.1
	c-0.1,0-0.2,0.1-0.3,0.1c-0.1,0-0.2,0-0.3,0.1c0,0,0,0-0.1,0c0,0,0,0,0,0c-0.2,0-0.4,0-0.6,0c0,0-0.1,0-0.1,0c0,0,0,0,0,0
	c-0.1,0-0.2,0-0.3-0.1c-0.1,0-0.2-0.1-0.3-0.1c0,0,0,0-0.1,0c0,0,0,0,0,0c-0.1-0.1-0.2-0.1-0.3-0.2c0,0-0.1,0-0.1,0c0,0,0,0,0,0
	c-0.1-0.1-0.2-0.2-0.2-0.2c-0.1-0.1-0.1-0.1,0,0c-0.1-0.1-0.1-0.2-0.2-0.3c0,0,0,0,0,0c0,0,0,0,0-0.1c0-0.1,0-0.1,0-0.2
	c0,0,0-0.2,0-0.3c0-0.8-0.7-1.5-1.5-1.5c-0.8,0-1.5,0.7-1.5,1.5c-0.1,1.5,0.8,2.9,2.1,3.7c1.2,0.8,2.7,0.9,4.1,0.6
	c0.6-0.1,1.2-0.4,1.7-0.7c0,0.1-0.1,0.2-0.1,0.3c0,0-0.1,0.2-0.1,0.3c-0.1,0.2-0.3,0.5-0.4,0.7c0,0,0,0.1,0,0.1c0,0,0,0,0,0
	c-0.1,0.1-0.2,0.2-0.3,0.3c-0.1,0.1-0.2,0.2-0.3,0.3c0,0-0.1,0.1-0.2,0.1c-0.1,0.1-0.2,0.1-0.3,0.2c0,0-0.1,0-0.1,0.1c0,0,0,0-0.1,0
	c-0.2,0.1-0.4,0.1-0.6,0.2c-0.1,0-0.3,0-0.3,0c-0.1,0-0.2,0-0.4,0c0,0,0,0-0.1,0c0,0-0.1,0-0.1,0c-0.1,0-0.3-0.1-0.4-0.1
	c0,0,0,0-0.1,0c0,0,0,0,0,0c-0.1-0.1-0.3-0.2-0.4-0.3c-0.7-0.4-1.7-0.1-2.1,0.5c-0.4,0.8-0.2,1.6,0.5,2.1c2.4,1.6,5.8,0.8,7.5-1.4
	c0.9-1.2,1.4-2.6,1.6-4.1C46.1,91.4,46,90.7,45.9,89.9z"/>
</svg>
